<?xml version="1.0" encoding="UTF-8"?>
<svg id="Layer_2" data-name="Layer 2" xmlns="http://www.w3.org/2000/svg" viewBox="0 0 128 128">
  <defs>
    <style>
      .cls-1 {
        fill: #10b17b;
      }
    </style>
  </defs>
  <path class="cls-1" d="M1.94,18.61s-7.23,32.74,18.48,48.69c25.71,15.96,35.8,11.87,35.8,11.87v42.62s.55,6.21,7.64,6.21,9-6.21,9-6.21V56.26s-5.73-20.19-24.82-32.19C28.94,12.06,1.94,18.61,1.94,18.61Z"/>
  <path class="cls-1" d="M63.79,28.36s6.99,8.76,9.99,14.97c3.11,6.43,6.35,19.25,6.35,19.25,0,0,30.31-5.37,39.52-25.01,9.21-19.64,7.16-37.03,7.16-37.03,0,0-19.44-2.25-33.14,2.46s-29.87,25.37-29.87,25.37Z"/>
</svg>